# xmcd CD database file
#
# Track frame offsets:
#	150
#	26977
#	38652
#	70833
#	82000
#	99737
#	127060
#	139104
#	157699
#	174819
#	198326
#	211355
#	231857
#	244057
#	255048
#	266349
#
# Disc length: 3714 seconds
#
# Revision: 0
# Processed by: cddbd v1.5.2PL0 Copyright (c) Steve Scherf et al.
# Submitted via: CDex 1.51
#
DISCID=d10e8010
DTITLE=Various Artist - Walk On The Wild Side CD1
DYEAR=2014
DGENRE=Jazz
TTITLE0=Walk On The Wild Side - Jimmy Smith
TTITLE1=Low Down - King Curtis
TTITLE2=Watermelon Man - Herbie Hancock
TTITLE3=Swinging Machine - Mose Allison
TTITLE4=All About My Girl - Jimmy McGriff
TTITLE5=He's A Real Gone Guy - Brother Jack McDuff
TTITLE6=Work Song - Oscar Brown Jr.
TTITLE7=Blues Walk - Herbie Mann
TTITLE8=Strange Meeting - Kenny Clake and Francy Boland
TTITLE9=Somebody Loves Me - Jimmy Smith
TTITLE10=Romesville/ Googie René
TTITLE11=Black Orpheus - Wayne Shorter
TTITLE12=Comin' Home Baby - Mel Tormé
TTITLE13=Flap Jack - Noble 'Thin Man' Watts
TTITLE14=Why Don't You Do Right - Mark Murphy 
TTITLE15=Boogie Bossa Nova - Quincy Jones and His Orchestra
EXTD=YEAR: 2014
EXTT0=
EXTT1=
EXTT2=
EXTT3=
EXTT4=
EXTT5=
EXTT6=
EXTT7=
EXTT8=
EXTT9=
EXTT10=
EXTT11=
EXTT12=
EXTT13=
EXTT14=
EXTT15=
PLAYORDER=
